<svg id="Layer_1" data-name="Layer 1" xmlns="http://www.w3.org/2000/svg" viewBox="0 0 1668 392"><defs><style>.cls-1,.cls-3{fill:#fff;}.cls-1,.cls-2,.cls-3{stroke:#231f20;stroke-miterlimit:10;}.cls-1,.cls-2{stroke-width:0.5px;}.cls-2{fill:#d4af37;}.cls-3{font-size:55.05px;stroke-width:0.25px;font-family:ChaparralPro-Regular, Chaparral Pro;letter-spacing:0.19em;}.cls-4{letter-spacing:0.19em;}.cls-5{letter-spacing:0.2em;}.cls-6{letter-spacing:0.2em;}.cls-7{letter-spacing:0.19em;}.cls-8{letter-spacing:0.2em;}.cls-9{letter-spacing:0.21em;}.cls-10{letter-spacing:0.21em;}.cls-11{letter-spacing:0.2em;}.cls-12{letter-spacing:0.2em;}.cls-13{letter-spacing:0.22em;}.cls-14{letter-spacing:0.2em;}</style></defs><path class="cls-1" d="M585.68,160.58H552.8V141.2h89.55v19.38H609.46V244H585.68Z"/><path class="cls-1" d="M777.12,141.2H800.9v83.39h51.53V244H777.12Z"/><path class="cls-1" d="M911.88,207.56V244H888.1v-36.7L848.31,141.2h25.25L901,186.86l27.46-45.66h23.34Z"/><polygon class="cls-2" points="679.71 110.06 679.71 245.73 656.92 245.73 656.92 131.65 679.71 110.06"/><polygon class="cls-2" points="716.41 73.24 716.41 245.73 693.62 245.73 693.62 94.83 716.41 73.24"/><polygon class="cls-2" points="753.11 141.47 753.11 245.73 730.32 245.73 730.32 119.85 753.11 141.47"/><path class="cls-1" d="M412.17,224.88V244H332.6V141.2h77.66v19.09h-54V182.6h47.71v18.5H356.23v23.78Z"/><path class="cls-1" d="M532.69,141.2V244H513.16l-51.23-62.39V244H438.44V141.2h19.67l51.09,62.4V141.2Z"/><path class="cls-1" d="M988.51,160.58H955.63V141.2h89.55v19.38h-32.89V244H988.51Z"/><path class="cls-1" d="M1065.29,141.2h23.78V244h-23.78Z"/><path class="cls-1" d="M1141.55,238.9a50.92,50.92,0,0,1-20-18.94,55.24,55.24,0,0,1,0-54.75,50.92,50.92,0,0,1,20-18.94,63.67,63.67,0,0,1,52.7-2.13,48.2,48.2,0,0,1,18.13,13.51l-15.27,14.09q-10.42-12-25.83-12a34.28,34.28,0,0,0-17,4.19,29.77,29.77,0,0,0-11.67,11.67,36.7,36.7,0,0,0,0,34.06,29.77,29.77,0,0,0,11.67,11.67,34.28,34.28,0,0,0,17,4.18q15.4,0,25.83-12.19l15.27,14.1a47.54,47.54,0,0,1-18.2,13.65,60.48,60.48,0,0,1-24.22,4.7A59,59,0,0,1,1141.55,238.9Z"/><path class="cls-1" d="M1301.34,222h-47.71l-9.1,22h-24.37L1266,141.2h23.49l46,102.77h-25Zm-7.48-18.06-16.3-39.34-16.29,39.34Z"/><text class="cls-3" transform="translate(332.6 301.31)">T<tspan class="cls-4" x="41.51" y="0">r</tspan><tspan class="cls-5" x="72.5" y="0">an</tspan><tspan class="cls-6" x="150.23" y="0">s</tspan><tspan class="cls-7" x="183.48" y="0">f</tspan><tspan class="cls-8" x="212.05" y="0">o</tspan><tspan class="cls-9" x="250.81" y="0">r</tspan><tspan class="cls-5" x="283.18" y="0">ming </tspan><tspan class="cls-10" x="466.06" y="0">d</tspan><tspan class="cls-11" x="506.35" y="0">a</tspan><tspan class="cls-5" x="542.08" y="0">ta a</tspan><tspan class="cls-12" x="667.92" y="0">n</tspan><tspan class="cls-5" x="709.71" y="0">a</tspan><tspan class="cls-12" x="745.71" y="0">l</tspan><tspan class="cls-13" x="770.87" y="0">y</tspan><tspan class="cls-14" x="808.52" y="0">t</tspan><tspan class="cls-8" x="839.35" y="0">i</tspan><tspan class="cls-5" x="864.95" y="0">cs</tspan></text></svg>